<svg width="10" height="16" viewBox="0 0 10 16" fill="none" xmlns="http://www.w3.org/2000/svg">
    <path fill-rule="evenodd" clip-rule="evenodd"
        d="M0.675141 8.82479C0.456425 8.606 0.333557 8.30931 0.333557 7.99995C0.333557 7.69059 0.456425 7.3939 0.675141 7.17512L7.27497 0.575286C7.3826 0.463857 7.51133 0.374978 7.65367 0.313834C7.79601 0.25269 7.9491 0.220506 8.10401 0.21916C8.25892 0.217814 8.41254 0.247333 8.55592 0.305994C8.6993 0.364655 8.82956 0.451284 8.9391 0.560825C9.04864 0.670367 9.13527 0.800627 9.19393 0.944006C9.25259 1.08739 9.28211 1.24101 9.28077 1.39592C9.27942 1.55083 9.24724 1.70392 9.18609 1.84626C9.12495 1.9886 9.03607 2.11733 8.92464 2.22495L3.14964 7.99995L8.92464 13.775C9.13716 13.995 9.25475 14.2897 9.25209 14.5956C9.24944 14.9015 9.12674 15.1941 8.91043 15.4104C8.69412 15.6267 8.40151 15.7494 8.09561 15.7521C7.78971 15.7547 7.49501 15.6371 7.27497 15.4246L0.675141 8.82479Z"
        fill="black" />
</svg>