<svg width="268" height="433" viewBox="0 0 268 433" fill="none" xmlns="http://www.w3.org/2000/svg">
    <rect x="48.9994" y="105" width="176" height="328" fill="url(#paint0_linear_1_503)" />
    <circle cx="136.787" cy="123.564" r="88.2601" fill="#3F008A" />
    <mask id="mask0_1_503" style="mask-type:alpha" maskUnits="userSpaceOnUse" x="0" y="0"
        width="274" height="274">
        <circle cx="136.788" cy="114.273" r="88.2601" fill="white" />
    </mask>
    <g mask="url(#mask0_1_503)">
        <circle cx="136.788" cy="114.273" r="88.2601" fill="#6000D3" />
        <circle cx="136.788" cy="114.274" r="64.1047" stroke="#190433" stroke-width="3.71622" />
        <path
            d="M109.815 128.375C106.337 128.375 103.394 127.721 100.986 126.413C98.6073 125.105 96.7938 123.247 95.5451 120.839C94.2965 118.431 93.6721 115.576 93.6721 112.276C93.6721 109.779 94.0289 107.535 94.7424 105.543C95.4857 103.551 96.5411 101.856 97.9086 100.459C99.3059 99.0319 101.001 97.9468 102.992 97.2035C104.984 96.4306 107.244 96.0441 109.771 96.0441C111.436 96.0441 113.101 96.2522 114.765 96.6684C116.46 97.0549 118.051 97.7238 119.537 98.6751C120.042 99.0022 120.369 99.4035 120.518 99.8792C120.696 100.355 120.726 100.845 120.607 101.351C120.488 101.826 120.265 102.243 119.938 102.599C119.611 102.956 119.195 103.179 118.69 103.268C118.214 103.358 117.679 103.239 117.084 102.912C115.955 102.258 114.81 101.782 113.651 101.485C112.491 101.187 111.198 101.039 109.771 101.039C107.571 101.039 105.713 101.485 104.196 102.376C102.68 103.239 101.536 104.502 100.763 106.167C100.019 107.832 99.6478 109.868 99.6478 112.276C99.6478 115.933 100.525 118.713 102.279 120.616C104.033 122.518 106.634 123.47 110.083 123.47C111.272 123.47 112.476 123.351 113.695 123.113C114.914 122.875 116.103 122.548 117.263 122.132L116.148 124.674V115.175H111.242C110.499 115.175 109.919 114.982 109.503 114.595C109.117 114.209 108.923 113.689 108.923 113.035C108.923 112.351 109.117 111.831 109.503 111.474C109.919 111.117 110.499 110.939 111.242 110.939H118.601C119.344 110.939 119.909 111.147 120.295 111.563C120.711 111.949 120.919 112.514 120.919 113.258V124.094C120.919 124.748 120.786 125.298 120.518 125.744C120.28 126.19 119.879 126.517 119.314 126.725C118.006 127.201 116.505 127.602 114.81 127.929C113.115 128.226 111.451 128.375 109.815 128.375ZM130.433 127.929C129.511 127.929 128.798 127.676 128.292 127.171C127.787 126.636 127.534 125.908 127.534 124.986V99.2549C127.534 98.3035 127.772 97.59 128.248 97.1143C128.753 96.6089 129.467 96.3562 130.388 96.3562C131.31 96.3562 132.008 96.6089 132.484 97.1143C132.989 97.59 133.242 98.3035 133.242 99.2549V123.068H146.175C146.977 123.068 147.587 123.276 148.003 123.693C148.449 124.109 148.672 124.704 148.672 125.476C148.672 126.249 148.449 126.859 148.003 127.305C147.587 127.721 146.977 127.929 146.175 127.929H130.433ZM164.968 128.375C161.936 128.375 159.275 127.706 156.986 126.368C154.727 125.031 152.973 123.158 151.724 120.749C150.475 118.312 149.851 115.458 149.851 112.187C149.851 109.72 150.208 107.505 150.921 105.543C151.635 103.551 152.645 101.856 153.954 100.459C155.291 99.0319 156.882 97.9468 158.725 97.2035C160.598 96.4306 162.679 96.0441 164.968 96.0441C168.031 96.0441 170.691 96.713 172.951 98.0508C175.21 99.3589 176.964 101.217 178.213 103.625C179.462 106.033 180.086 108.872 180.086 112.143C180.086 114.61 179.729 116.84 179.016 118.832C178.302 120.824 177.277 122.533 175.939 123.96C174.631 125.387 173.04 126.487 171.167 127.26C169.324 128.004 167.258 128.375 164.968 128.375ZM164.968 123.47C166.901 123.47 168.536 123.024 169.874 122.132C171.241 121.24 172.282 119.947 172.995 118.252C173.739 116.558 174.11 114.536 174.11 112.187C174.11 108.62 173.308 105.855 171.702 103.893C170.127 101.931 167.882 100.949 164.968 100.949C163.066 100.949 161.431 101.395 160.063 102.287C158.695 103.149 157.64 104.428 156.897 106.122C156.183 107.787 155.827 109.809 155.827 112.187C155.827 115.725 156.629 118.49 158.235 120.482C159.84 122.474 162.085 123.47 164.968 123.47Z"
            fill="white" />
        <rect x="128.125" y="-1.44452" width="37.2654" height="231.438"
            transform="rotate(22.1995 128.125 -1.44452)" fill="white" fill-opacity="0.21" />
        <rect x="196.773" y="29.9365" width="37.2654" height="231.438"
            transform="rotate(22.1995 196.773 29.9365)" fill="white" fill-opacity="0.21" />
    </g>
    <path
        d="M32.7331 0L38.5044 15.5969L54.1013 21.3682L38.5044 27.1396L32.7331 42.7365L26.9617 27.1396L11.3648 21.3682L26.9617 15.5969L32.7331 0Z"
        fill="#FFDA67" />
    <path
        d="M246.415 169.088L252.187 184.685L267.784 190.456L252.187 196.227L246.415 211.824L240.644 196.227L225.047 190.456L240.644 184.685L246.415 169.088Z"
        fill="#FFDA67" />
    <path
        d="M173.949 7.43243L179.721 23.0293L195.318 28.8007L179.721 34.572L173.949 50.1689L168.178 34.572L152.581 28.8007L168.178 23.0293L173.949 7.43243Z"
        fill="#FFDA67" />
    <path
        d="M21.5844 133.784L27.3558 149.381L42.9527 155.152L27.3558 160.923L21.5844 176.52L15.8131 160.923L0.216187 155.152L15.8131 149.381L21.5844 133.784Z"
        fill="#FFDA67" />
    <defs>
        <linearGradient id="paint0_linear_1_503" x1="136.999" y1="105" x2="136.999" y2="433"
            gradientUnits="userSpaceOnUse">
            <stop stop-color="#F3E9FF" stop-opacity="0.87" />
            <stop offset="0.927143" stop-color="#CEA7FE" stop-opacity="0" />
        </linearGradient>
    </defs>
</svg>
    